<?xml version="1.0" encoding="UTF-8" standalone="no"?>
<!-- Created with Inkscape (http://www.inkscape.org/) -->

<svg
   width="25.710537"
   height="47.390537"
   viewBox="0 0 21.087997 38.870114"
   version="1.1"
   id="svg5"
   xmlns="http://www.w3.org/2000/svg"
   xmlns:svg="http://www.w3.org/2000/svg">
   <defs
      id="defs2">
      <clipPath
         clipPathUnits="userSpaceOnUse"
         id="clipPath39">
         <path
            d="M 0,425.197 H 566.929 V 0 H 0 Z"
            id="path37" />
      </clipPath>
   </defs>
   <g
      id="layer1"
      transform="translate(-46.149905,-85.614357)">
      <g
         id="g69"
         transform="matrix(0.35277777,0,0,-0.35277777,61.885557,124.48447)">
         <path
            d="m 0,0 c 8.346,0.001 15.111,6.767 15.11,15.113 0,4.176 -1.694,7.956 -4.433,10.691 L -9.927,49.413 c -0.419,0.435 -0.817,0.89 -1.191,1.365 l -0.058,0.067 0.003,0.003 c -2.371,3.04 -3.787,6.86 -3.788,11.013 0,9.334 7.133,17 16.246,17.848 l 0.002,0.011 c 7.784,0.697 13.886,7.235 13.885,15.2 -0.001,8.43 -6.835,15.263 -15.265,15.263 -8.429,-0.001 -15.263,-6.835 -15.262,-15.266 0,-1.383 0.187,-2.722 0.532,-3.997 l -0.014,-0.01 c 1.583,-6.051 0.86,-12.75 -2.544,-18.648 -3.542,-6.136 -9.285,-10.19 -15.606,-11.717 -6.739,-2.154 -11.619,-8.465 -11.618,-15.918 0,-4.463 1.753,-8.514 4.604,-11.512 L -40.016,33.103 -11.76,5.59 -11.744,5.604 C -8.974,2.187 -4.743,0 0,0"
            style="fill:#848bfe;fill-opacity:1;fill-rule:nonzero;stroke:none"
            id="path71" />
      </g>
   </g>
</svg>
