<?xml version="1.0" encoding="UTF-8" standalone="no"?>
<svg
   width="56.215"
   height="61.353699"
   viewBox="0 0 56.215 61.353699"
   fill="none"
   version="1.1"
   id="svg24"
   sodipodi:docname="nuclearis.svg"
   inkscape:version="1.1.2 (b8e25be8, 2022-02-05)"
   xmlns:inkscape="http://www.inkscape.org/namespaces/inkscape"
   xmlns:sodipodi="http://sodipodi.sourceforge.net/DTD/sodipodi-0.dtd"
   xmlns="http://www.w3.org/2000/svg"
   xmlns:svg="http://www.w3.org/2000/svg">
  <defs
     id="defs28" />
  <sodipodi:namedview
     id="namedview26"
     pagecolor="#ffffff"
     bordercolor="#666666"
     borderopacity="1.0"
     inkscape:pageshadow="2"
     inkscape:pageopacity="0.0"
     inkscape:pagecheckerboard="0"
     showgrid="false"
     fit-margin-top="0"
     fit-margin-left="0"
     fit-margin-right="0"
     fit-margin-bottom="0"
     inkscape:zoom="2.6491228"
     inkscape:cx="8.4933775"
     inkscape:cy="-2.4536424"
     inkscape:window-width="1377"
     inkscape:window-height="827"
     inkscape:window-x="0"
     inkscape:window-y="38"
     inkscape:window-maximized="0"
     inkscape:current-layer="svg24" />
  <path
     d="m 20.319,9.4845 c 7.907,0 16.972,3.9248 22.907,11.6866 l 12.65,-9.7587 C 50.114,4.4506 41.307,0 31.427,0 20.791,0 12.067,4.9726 5.919,12.6368 9.774,10.6613 14.597,9.4845 20.319,9.4845 Z"
     fill="#416567"
     id="path18" />
  <path
     d="m 22.571,44.3001 c 6.08,7.673 14.435,11.8419 24.06,11.3849 1.348,-0.0638 2.106,-0.0075 3.359,-0.3192 2.171,-1.6112 4.55,-3.757 6.225,-5.8565 L 44.177,40.418 c -2.965,3.6931 -7.574,6.0692 -12.753,6.0692 -3.127,0 -6.375,-0.6848 -8.853,-2.1871 z"
     fill="#ffffff"
     id="path20" />
  <path
     d="m 32.147,14.869 c 0.025,0.0188 -0.468,0 -0.72,0 -8.948,0 -16.118,7.0157 -16.118,15.7428 0,0.8713 0.272,2.7003 0.285,2.7454 0.225,1.272 0.446,3.0572 0.96,4.2089 3.585,11.1621 14.821,20.8531 29.71,20.1533 -4.42,2.321 -9.472,3.6343 -14.837,3.6343 C 14.069,61.3537 0,47.6215 0,30.6731 0,25.4051 1.364,20.445 3.763,16.1147 c 4.669,-2.8331 9.933,-4.5082 16.001,-4.363 -10e-4,0 5.849,-0.1777 12.383,3.1173 z"
     fill="#0798b6"
     id="path22" />
</svg>
