<?xml version="1.0" encoding="UTF-8" standalone="no"?>
<svg
   width="29"
   height="30"
   viewBox="0 0 29 30"
   fill="none"
   version="1.1"
   id="svg176"
   sodipodi:docname="radicle.svg"
   inkscape:version="1.1.2 (b8e25be8, 2022-02-05)"
   xmlns:inkscape="http://www.inkscape.org/namespaces/inkscape"
   xmlns:sodipodi="http://sodipodi.sourceforge.net/DTD/sodipodi-0.dtd"
   xmlns="http://www.w3.org/2000/svg"
   xmlns:svg="http://www.w3.org/2000/svg">
  <sodipodi:namedview
     id="namedview178"
     pagecolor="#ffffff"
     bordercolor="#666666"
     borderopacity="1.0"
     inkscape:pageshadow="2"
     inkscape:pageopacity="0.0"
     inkscape:pagecheckerboard="0"
     showgrid="false"
     fit-margin-top="0"
     fit-margin-left="0"
     fit-margin-right="0"
     fit-margin-bottom="0"
     inkscape:zoom="6.6740331"
     inkscape:cx="32.439156"
     inkscape:cy="3.071606"
     inkscape:window-width="1377"
     inkscape:window-height="827"
     inkscape:window-x="0"
     inkscape:window-y="38"
     inkscape:window-maximized="0"
     inkscape:current-layer="svg176" />
  <path
     d="m 15.9816,23.8228 c -0.3397,-3.7287 0.199,-8.7539 2.3781,-11.1886 2.295,0.5133 6.8849,-1.0706 8.554,-4.2829 C 28.4272,5.43853 28.1528,1.16388 29,0 19.0202,-7.9999539e-5 17.3645,10.4047 14.5067,18.1967 12.3937,12.4354 5.76235,8.5531 0,10.9212 c 2.3427,1.6334 3.80345,5.661 6.97767,6.0215 0.99866,0.1134 2.81233,0 4.00693,-2.2771 2.8267,2.3159 2.4147,5.1244 2.0472,9.1572 -0.1483,1.6276 -0.7066,3.1756 -0.6246,4.4669 0.1177,2.2804 4.0813,2.2804 4.199,0 0.082,-1.2913 -0.4763,-2.8393 -0.6246,-4.4669 z"
     fill="url(#paint0_linear)"
     id="path118"
     style="fill:url(#paint0_linear)" />
  <mask
     id="path-2-inside-1"
     fill="#ffffff">
    <path
       d="m 89.0433,13.512 c 0,-4.43755 0,-8.79681 0,-13.191291 1.8883,0 3.707,0 5.572,0 0,10.056891 0,20.087491 0,30.161291 -1.8379,0 -3.6578,0 -5.572,0 0,-0.5413 0,-1.0891 0,-1.7035 -0.1564,0.0769 -0.2197,0.0913 -0.2609,0.1304 -2.0899,1.9631 -4.5802,2.4563 -7.263,1.7975 -3.5377,-0.8675 -5.6664,-3.291 -6.5408,-6.7725 -0.8874,-3.5322 -0.2907,-6.8244 2.1028,-9.6615 2.5174,-2.9844 6.958,-3.8297 10.2763,-1.9579 0.554,0.3118 1.0476,0.7383 1.6856,1.1975 z m 0.1846,7.8901 c 0.004,-0.9638 -0.1149,-1.6957 -0.4043,-2.3791 -0.6793,-1.6056 -1.8728,-2.5865 -3.6062,-2.7758 -1.6352,-0.1786 -3.0276,0.3705 -4.0144,1.7258 -1.1625,1.5965 -1.2982,3.3692 -0.6355,5.1967 0.9145,2.5213 3.8064,3.6523 6.1689,2.4169 1.7566,-0.9169 2.4025,-2.5057 2.4915,-4.1845 z"
       id="path120" />
    <path
       d="m 65.2552,13.4917 c 0,-0.574 0,-1.1022 0,-1.6775 1.8936,0 3.7109,0 5.5295,0 0.1434,0.4539 0.2105,17.1305 0.0659,18.6801 -1.8251,0.0731 -3.6605,0.0105 -5.5656,0.0353 0,-0.5987 0,-1.1335 0,-1.7962 -0.23,0.1813 -0.3605,0.2727 -0.478,0.3783 -1.2541,1.127 -2.7383,1.6957 -4.3954,1.8196 -4.5259,0.3353 -7.8325,-2.6452 -8.9511,-6.1527 -1.2167,-3.8179 -0.7401,-7.3973 1.882,-10.5252 2.4927,-2.9713 6.9205,-3.8022 10.2207,-1.9566 0.5734,0.3196 1.0797,0.7579 1.692,1.1949 z m -8.911,7.6777 c 0,0.5363 0.2325,1.3721 0.4754,2.0099 0.6432,1.6814 1.8819,2.6832 3.6695,2.8632 1.7449,0.1761 3.1606,-0.4774 4.1526,-1.967 1.2167,-1.8274 1.0746,-4.581 -0.31,-6.2833 -1.6895,-2.0792 -4.9677,-2.1118 -6.7023,-0.0691 -0.8371,0.9862 -1.2852,2.1425 -1.2852,3.4463 z"
       id="path122" />
    <path
       d="m 151.718,25.9797 c 2.27,0 4.416,0 6.604,0 0,1.5169 0,2.9844 0,4.4987 -6.261,0 -12.513,0 -18.764,0 -0.147,-0.4617 -0.176,-3.741 -0.024,-4.5092 2.147,0 4.309,0 6.512,0 0,-7.0593 0,-14.0456 0,-21.10631 -2.179,0 -4.341,0 -6.481,0 -0.147,-0.53741 -0.184,-3.58446 -0.074,-4.467526 0.453,-0.136961 11.455,-0.165657 12.227,-0.016956 0,8.491542 0,17.000092 0,25.601292 z"
       id="path124" />
    <path
       d="m 164.337,22.596 c 0.118,1.3696 0.71,2.3806 1.732,3.0809 1.612,1.1049 3.356,1.1075 5.113,0.3848 0.68,-0.2791 1.141,-0.8335 1.468,-1.5026 1.647,0 3.275,0 5.015,0 -0.192,0.5491 -0.314,1.0565 -0.536,1.5144 -1,2.0727 -2.609,3.5049 -4.741,4.2758 -2.526,0.9143 -5.089,0.857 -7.582,-0.12 -2.776,-1.0879 -4.519,-3.1697 -5.304,-6.0616 -0.59,-2.1744 -0.562,-4.3383 0.199,-6.4735 1.334,-3.7463 4.839,-6.282 8.78,-6.3577 2.371,-0.0456 4.51,0.587 6.31,2.2006 1.572,1.4099 2.459,3.2153 2.91,5.2592 0.268,1.2143 0.365,2.4431 0.252,3.7749 -0.902,0.0483 -1.796,0.017 -2.69,0.0235 -0.903,0.0052 -1.808,0.0013 -2.712,0.0013 -0.903,0 -1.809,0 -2.712,0 -0.904,0 -1.808,0 -2.713,0 -0.899,0 -1.801,0 -2.789,0 z m 8.201,-3.5492 c 0,-0.1095 0.018,-0.197 -0.002,-0.274 -0.263,-1.0134 -0.804,-1.8352 -1.743,-2.3114 -1.498,-0.7591 -3.002,-0.6991 -4.431,0.1736 -0.888,0.5413 -1.486,1.3486 -1.815,2.4131 2.692,-0.0013 5.328,-0.0013 7.991,-0.0013 z"
       id="path126" />
    <path
       d="m 138.292,18.8446 c -1.893,0 -3.738,0 -5.597,0 -0.05,-0.0769 -0.111,-0.1435 -0.139,-0.2204 -0.721,-1.9501 -3.025,-2.987 -5.288,-1.9787 -1.26,0.5608 -2.044,1.5692 -2.395,2.9022 -0.48,1.8289 -0.267,3.5467 0.97,5.0297 1.543,1.8497 4.447,1.9554 6.005,0.2231 0.34,-0.3783 0.569,-0.857 0.889,-1.3462 1.795,0 3.657,0 5.591,0 -0.024,0.2101 -0.027,0.398 -0.07,0.5779 -0.637,2.6636 -2.251,4.5576 -4.61,5.8137 -3.99,2.1261 -9.096,1.1727 -12.105,-2.2214 -4.101,-4.6253 -2.903,-11.9168 2.458,-14.9639 4.057,-2.3062 9.085,-1.5874 12.216,1.7492 1.031,1.0983 1.701,2.3922 2.046,3.861 0.025,0.1056 0.046,0.2126 0.056,0.3208 0.007,0.0601 -0.011,0.124 -0.027,0.253 z"
       id="path128" />
    <path
       d="m 105.694,16.3086 c -2.177,0 -4.322,0 -6.5137,0 0,-1.5158 0,-2.9818 0,-4.4963 4.0477,0 8.0837,0 12.2057,0 0.009,0.24 0.029,0.4917 0.029,0.7422 10e-4,4.1949 10e-4,8.3897 10e-4,12.5847 0,0.253 0,0.5061 0,0.8074 2.233,0 4.378,0 6.507,0 0.164,0.4879 0.203,3.6733 0.065,4.5354 -6.244,0 -12.496,0 -18.7428,0 -0.1335,-0.4814 -0.1745,-3.4463 -0.0559,-4.4911 0.7065,-0.0547 1.4317,-0.0182 2.1527,-0.0247 0.711,-0.0065 1.421,-0.0012 2.132,-0.0012 0.729,0 1.461,0 2.179,0 0.159,-0.4749 0.199,-8.776 0.041,-9.6564 z"
       id="path130" />
    <path
       d="m 48.0231,11.8101 c 0,1.5118 0,2.9623 0,4.5055 -1.0437,0.0182 -2.068,0.0064 -3.0909,0.0077 -1.054,0.0026 -2.108,0 -3.162,0 -1.0281,0 -2.0563,0 -3.1567,0 0,4.7376 0,9.4177 0,14.077 -0.5296,0.1512 -4.8618,0.1786 -5.6135,0.0496 0,-6.1933 0,-12.3943 0,-18.6398 5.0012,0 9.9779,0 15.0231,0 z"
       id="path132" />
    <path
       d="m 108.052,7.36599 c -2.081,0.00395 -3.705,-1.61612 -3.701,-3.6901 0.004,-2.03615 1.617,-3.6588005 3.655,-3.675757464 C 110.085,-0.0168245 111.725,1.5954 111.734,3.66284 c 0.01,2.08442 -1.596,3.69926 -3.682,3.70315 z"
       id="path134" />
  </mask>
  <defs
     id="defs174">
    <linearGradient
       id="paint0_linear"
       x1="9.9509802"
       y1="11.5096"
       x2="22.4573"
       y2="35.159199"
       gradientUnits="userSpaceOnUse"
       gradientTransform="translate(0,-3)">
      <stop
         stop-color="#FF55FF"
         id="stop169" />
      <stop
         offset="1"
         stop-color="#5555FF"
         id="stop171" />
    </linearGradient>
  </defs>
</svg>
